<svg xmlns="http://www.w3.org/2000/svg" viewBox="0 0 508.33 196.26"><defs><style>.cls-1{isolation:isolate;}.cls-2{fill:#9b2723;}.cls-3{fill:#fff;}.cls-4{fill:#00aae8;}.cls-5{fill:#00abed;}.cls-6{fill:#a2cc90;}.cls-12,.cls-6,.cls-8{mix-blend-mode:multiply;}.cls-7{fill:#96cd88;}.cls-8,.cls-9{fill:#b240c1;}.cls-10{fill:#623764;}.cls-11{fill:#f05623;}.cls-12{fill:#e16036;}.cls-13{fill:#38877e;}</style></defs><g class="cls-1"><g id="Layer_2" data-name="Layer 2"><g id="Layer_1-2" data-name="Layer 1"><path class="cls-2" d="M48.72,168.68A13,13,0,0,0,54.6,186.1q1.18.59,2.4,1.14l1.36.62,1,.43,1.89.79.43.18c.75.3,1.49.59,2.25.87h0a97.91,97.91,0,0,0,9.69,3A13,13,0,0,0,80.22,168a69.83,69.83,0,0,1-7.2-2.26h0c-1.14-.43-2.27-.88-3.38-1.36l-.2-.09q-1.64-.7-3.24-1.5h0A13,13,0,0,0,48.72,168.68Z"/><path class="cls-3" d="M101.28,101.48a17.47,17.47,0,0,1,7,6.71,19,19,0,0,1,2.52,9.81,18.81,18.81,0,0,1-2.57,9.82,17.77,17.77,0,0,1-7.17,6.7,22.32,22.32,0,0,1-10.49,2.41H74.89V99.08H91A21.77,21.77,0,0,1,101.28,101.48Zm-4.47,26.77a10.23,10.23,0,0,0,3.92-4.14,12.65,12.65,0,0,0,1.41-6,12.48,12.48,0,0,0-1.49-6.11,10.61,10.61,0,0,0-4.05-4.19,11.39,11.39,0,0,0-5.81-1.49H83.43v23.46h7.73A10.88,10.88,0,0,0,96.81,128.25Z"/><path class="cls-3" d="M121.52,96.13a5.07,5.07,0,0,1,0,6.71,4.38,4.38,0,0,1-3.27,1.3,4.22,4.22,0,0,1-3.21-1.33,5,5,0,0,1,0-6.68,4.29,4.29,0,0,1,3.21-1.29A4.37,4.37,0,0,1,121.52,96.13Zm-7.38,11.63h8.33v29.17h-8.33Z"/><path class="cls-3" d="M125.23,107.89l8.59,0L140.69,129l6.81-21.19h8.27l-11,29.09h-8.54Z"/><path class="cls-3" d="M180.51,111.62q3.65,4.06,3.65,11.3c0,.87,0,1.53-.06,2H163.24a7.52,7.52,0,0,0,2.7,4.3,7.63,7.63,0,0,0,4.81,1.54,10.24,10.24,0,0,0,7.35-3.08l4.38,4.43a14.81,14.81,0,0,1-5.38,3.82,18.15,18.15,0,0,1-7,1.32,16.7,16.7,0,0,1-8-1.84,12.81,12.81,0,0,1-5.3-5.19,17,17,0,0,1,0-15.54,13.19,13.19,0,0,1,5.3-5.25,16,16,0,0,1,7.78-1.86Q176.87,107.57,180.51,111.62ZM176.32,120a6.57,6.57,0,0,0-1.84-4.59,6.18,6.18,0,0,0-4.59-1.73,6.32,6.32,0,0,0-4.52,1.7,8,8,0,0,0-2.3,4.62Z"/><path class="cls-3" d="M199.73,109a11.65,11.65,0,0,1,5.68-1.46v7.84c-.29,0-.73,0-1.3,0a8.56,8.56,0,0,0-6.08,2.08,7.2,7.2,0,0,0-2.25,5.54v14h-8.32V107.84h8.32v5.24A10.65,10.65,0,0,1,199.73,109Z"/><path class="cls-3" d="M223.57,114.3a14,14,0,0,0-4.16-.73,4.76,4.76,0,0,0-2.43.54,1.75,1.75,0,0,0-.92,1.62,2,2,0,0,0,1.24,1.84,23.91,23.91,0,0,0,4.06,1.46,43.83,43.83,0,0,1,5.08,1.81,9.55,9.55,0,0,1,3.46,2.65,7,7,0,0,1,1.46,4.62,7.81,7.81,0,0,1-3.33,6.73,14.1,14.1,0,0,1-8.51,2.41,22.52,22.52,0,0,1-6.87-1.05,17.77,17.77,0,0,1-5.73-3l2.7-5.62a16.94,16.94,0,0,0,4.95,2.68,15.78,15.78,0,0,0,5.16.94,5.53,5.53,0,0,0,2.68-.56,1.84,1.84,0,0,0,1-1.71,2.14,2.14,0,0,0-1.27-1.94,21.19,21.19,0,0,0-4.08-1.52,39.49,39.49,0,0,1-4.95-1.73,8.75,8.75,0,0,1-3.38-2.62,7.06,7.06,0,0,1-1.4-4.57,7.82,7.82,0,0,1,3.24-6.7,13.5,13.5,0,0,1,8.22-2.38,21.74,21.74,0,0,1,5.94.84,19.93,19.93,0,0,1,5.41,2.4l-2.86,5.68A24.06,24.06,0,0,0,223.57,114.3Z"/><path class="cls-3" d="M242.14,96.13a5.07,5.07,0,0,1,0,6.71,4.38,4.38,0,0,1-3.27,1.3,4.22,4.22,0,0,1-3.21-1.33,5,5,0,0,1,0-6.68,4.29,4.29,0,0,1,3.21-1.29A4.37,4.37,0,0,1,242.14,96.13Zm-7.38,11.63h8.33v29.17h-8.33Z"/><path class="cls-3" d="M266.93,135.3a13.51,13.51,0,0,1-3.59,1.49,15.86,15.86,0,0,1-4,.51,9.37,9.37,0,0,1-6.59-2.32,8.54,8.54,0,0,1-2.54-6.65V114.87h0v-5.74h0v-8h8.27v6.63h7.89v5.62H258.5v13.54q0,3.36,2.65,3.36a9.26,9.26,0,0,0,4.05-1.09Z"/><path class="cls-3" d="M275.42,147.79a11.57,11.57,0,0,1-7.89-2.81l3.51-6a6,6,0,0,0,3.79,1.57,4,4,0,0,0,3.84-2.6l.81-1.62-12.06-28.49H276l7.62,20,6.87-20h8.32l-12.76,32.33Q283,147.79,275.42,147.79Z"/><path class="cls-3" d="M302.62,99.08h9.51l11.79,23.25L335.6,99.08h9.46v37.85h-7.68V111.35l-10.76,21.74h-5.51l-10.82-21.74v25.58h-7.67Z"/><path class="cls-3" d="M374.28,111.62q3.64,4.06,3.65,11.3c0,.87,0,1.53-.05,2H357a7.38,7.38,0,0,0,7.51,5.84,10.27,10.27,0,0,0,4-.78,10.43,10.43,0,0,0,3.41-2.3l4.37,4.43a14.72,14.72,0,0,1-5.38,3.82,18.11,18.11,0,0,1-7.05,1.32,16.73,16.73,0,0,1-8-1.84,12.87,12.87,0,0,1-5.3-5.19,17,17,0,0,1,0-15.54,13.26,13.26,0,0,1,5.3-5.25,16,16,0,0,1,7.78-1.86Q370.64,107.57,374.28,111.62ZM370.09,120a6.53,6.53,0,0,0-1.84-4.59,6.17,6.17,0,0,0-4.59-1.73,6.32,6.32,0,0,0-4.52,1.7,8,8,0,0,0-2.3,4.62Z"/><path class="cls-3" d="M399,135.3a13.51,13.51,0,0,1-3.59,1.49,15.86,15.86,0,0,1-4,.51,9.37,9.37,0,0,1-6.59-2.32,8.54,8.54,0,0,1-2.54-6.65V114.87h0v-5.74h0v-8h8.27v6.63h7.89v5.62h-7.89v13.54q0,3.36,2.65,3.36a9.26,9.26,0,0,0,4.05-1.09Z"/><path class="cls-3" d="M415.24,109a11.68,11.68,0,0,1,5.68-1.46v7.84c-.29,0-.72,0-1.3,0a8.56,8.56,0,0,0-6.08,2.08,7.19,7.19,0,0,0-2.24,5.54v14H403V107.84h8.33v5.24A10.55,10.55,0,0,1,415.24,109Z"/><path class="cls-3" d="M432.84,96.13a5.07,5.07,0,0,1,0,6.71,4.41,4.41,0,0,1-3.27,1.3,4.25,4.25,0,0,1-3.22-1.33,5,5,0,0,1,0-6.68,4.33,4.33,0,0,1,3.22-1.29A4.4,4.4,0,0,1,432.84,96.13Zm-7.38,11.63h8.33v29.17h-8.33Z"/><path class="cls-3" d="M452.55,114.65a6.61,6.61,0,0,0-5.11,2.14,8,8,0,0,0-2,5.65,8.25,8.25,0,0,0,2,5.7,6.37,6.37,0,0,0,5,2.19,7.5,7.5,0,0,0,6.75-3.41l5.73,3.9a12.23,12.23,0,0,1-5.16,4.75,17,17,0,0,1-7.76,1.68,15.75,15.75,0,0,1-7.73-1.84,13,13,0,0,1-5.22-5.19,15.65,15.65,0,0,1-1.86-7.73,15.91,15.91,0,0,1,1.86-7.81,13.13,13.13,0,0,1,5.25-5.25,15.94,15.94,0,0,1,7.81-1.86,16.61,16.61,0,0,1,7.41,1.59,13.08,13.08,0,0,1,5.19,4.52l-5.62,4A8,8,0,0,0,452.55,114.65Z"/><path class="cls-3" d="M482.61,114.3a14,14,0,0,0-4.17-.73,4.81,4.81,0,0,0-2.43.54,1.77,1.77,0,0,0-.92,1.62,2,2,0,0,0,1.25,1.84,24.06,24.06,0,0,0,4.05,1.46,42.51,42.51,0,0,1,5.08,1.81,9.47,9.47,0,0,1,3.46,2.65,7,7,0,0,1,1.46,4.62,7.81,7.81,0,0,1-3.32,6.73,14.15,14.15,0,0,1-8.52,2.41,22.46,22.46,0,0,1-6.86-1.05,17.77,17.77,0,0,1-5.73-3l2.7-5.62a16.94,16.94,0,0,0,4.95,2.68,15.78,15.78,0,0,0,5.16.94,5.53,5.53,0,0,0,2.68-.56,1.86,1.86,0,0,0,1-1.71,2.16,2.16,0,0,0-1.27-1.94,21.08,21.08,0,0,0-4.09-1.52,39.28,39.28,0,0,1-4.94-1.73,8.68,8.68,0,0,1-3.38-2.62,7.07,7.07,0,0,1-1.41-4.57,7.8,7.8,0,0,1,3.25-6.7,13.49,13.49,0,0,1,8.21-2.38,21.75,21.75,0,0,1,5.95.84,20.07,20.07,0,0,1,5.41,2.4l-2.87,5.68A23.73,23.73,0,0,0,482.61,114.3Z"/><path class="cls-3" d="M490.32,99.09h7.24v1.66h-2.65v7h-2v-7h-2.64Z"/><path class="cls-3" d="M498.61,99.09h2.18l2.7,5.33,2.67-5.33h2.17v8.67h-1.76V101.9l-2.46,5h-1.26l-2.48-5v5.86h-1.76Z"/><path class="cls-4" d="M86.88,85.26a8.55,8.55,0,0,1-6.29,2.28,10.28,10.28,0,0,1-8.28-4l2.42-3.83a10.71,10.71,0,0,0,2.85,2.2,6.16,6.16,0,0,0,2.86.79,3.38,3.38,0,0,0,2.62-1A4.07,4.07,0,0,0,84,78.77V65.05H74.77V60.49H89.18V78.88A8.58,8.58,0,0,1,86.88,85.26Z"/><path class="cls-4" d="M99.06,60.49h19.67V65H104.2V71.6h13v4.49h-13v6.74h15v4.48H99.06Z"/><path class="cls-4" d="M146.93,60.49h5V87.31h-4.86l-13.8-18.47V87.31h-5V60.49h4.87L146.93,79Z"/><path class="cls-4" d="M174.32,65.43a12.74,12.74,0,0,0-3.81-.69,5.31,5.31,0,0,0-2.91.69,2.16,2.16,0,0,0-1.08,1.92,2.53,2.53,0,0,0,.75,1.86,5.94,5.94,0,0,0,1.88,1.22,30.89,30.89,0,0,0,3.08,1.06,32.5,32.5,0,0,1,4.47,1.61,7.9,7.9,0,0,1,3,2.37,6.53,6.53,0,0,1,1.22,4.14,7.06,7.06,0,0,1-1.32,4.27,8.22,8.22,0,0,1-3.64,2.78,13.78,13.78,0,0,1-5.31,1,16.69,16.69,0,0,1-6.13-1.17,17.48,17.48,0,0,1-5.21-3.12L161.42,79a15.71,15.71,0,0,0,4.57,3A12,12,0,0,0,170.7,83a6,6,0,0,0,3.37-.82,2.71,2.71,0,0,0,.48-4.14,5.59,5.59,0,0,0-1.9-1.21c-.76-.3-1.81-.65-3.14-1a38.2,38.2,0,0,1-4.44-1.57,7.7,7.7,0,0,1-2.95-2.32,6.4,6.4,0,0,1-1.23-4.08,6.82,6.82,0,0,1,1.24-4.08A8,8,0,0,1,165.66,61a13.5,13.5,0,0,1,5.27-1,17.81,17.81,0,0,1,5.15.77,17.4,17.4,0,0,1,4.55,2.07l-2.07,4.49A19.25,19.25,0,0,0,174.32,65.43Z"/><path class="cls-4" d="M190.24,60.49H209.9V65H195.38V71.6h13v4.49h-13v6.74h15v4.48H190.24Z"/><path class="cls-4" d="M238.11,60.49h5V87.31h-4.87L224.43,68.84V87.31h-5V60.49h4.86L238.11,79Z"/><path class="cls-4" d="M82,27.82l-1.6.39Z"/><path class="cls-4" d="M84.46,27.3c-.52.1-1,.2-1.55.32Z"/><path class="cls-4" d="M149.45,14.49c.85.53,1.7,1.06,2.54,1.62C151.15,15.55,150.3,15,149.45,14.49Z"/><path class="cls-4" d="M142.73,10.69l.23.12Z"/><path class="cls-4" d="M146.08,12.51c.5.28,1,.55,1.49.85C147.08,13.07,146.58,12.78,146.08,12.51Z"/><path class="cls-4" d="M135.94,36.71c-.55-.35-1.11-.69-1.67-1C134.83,36,135.39,36.36,135.94,36.71Z"/><path class="cls-4" d="M89.14,26.36l-1,.14a14.35,14.35,0,0,1-1.88.47l-.86.16a72.25,72.25,0,0,1,48.24,8.2A71.72,71.72,0,0,0,89.14,26.36Z"/><path class="cls-4" d="M152.83,16.68c1.14.76,2.26,1.55,3.37,2.36C155.09,18.23,154,17.44,152.83,16.68Z"/><path class="cls-4" d="M138.27,38.21l-.62-.42Z"/><path class="cls-4" d="M77.09,29.11h0c.8-.24,1.6-.47,2.41-.68-.81.21-1.62.44-2.41.68Z"/><path class="cls-4" d="M147.57,13.36c.63.36,1.25.75,1.88,1.13Z"/><path class="cls-4" d="M156.22,19.06l0,0,0,0Z"/><path class="cls-4" d="M152,16.11c.28.18.56.38.84.57C152.55,16.49,152.27,16.29,152,16.11Z"/><path class="cls-4" d="M134.27,35.69l-.64-.36Z"/><path class="cls-4" d="M140.76,40l.06,0c-.84-.61-1.69-1.21-2.55-1.79C139.11,38.78,139.94,39.36,140.76,40Z"/><path class="cls-4" d="M137.65,37.79q-.85-.55-1.71-1.08Q136.79,37.24,137.65,37.79Z"/><path class="cls-4" d="M143,10.81c1,.54,2.09,1.12,3.12,1.7C145.05,11.92,144,11.36,143,10.81Z"/><path class="cls-4" d="M79.54,1.77l1.3-.24Z"/><path class="cls-4" d="M69.77,4.17l-.24.07h0Z"/><path class="cls-4" d="M76.13,2.49c.45-.11.9-.2,1.36-.3C77,2.29,76.58,2.38,76.13,2.49Z"/><path class="cls-5" d="M165.6,26.87a99.06,99.06,0,0,0-9.37-7.8l0,0c-1.11-.81-2.23-1.6-3.37-2.36-.28-.19-.56-.39-.84-.57-.84-.56-1.69-1.09-2.54-1.62-.63-.38-1.25-.77-1.88-1.13s-1-.57-1.49-.85c-1-.58-2.07-1.16-3.12-1.7l-.23-.12A97.89,97.89,0,0,0,98.13,0,99,99,0,0,0,82.34,1.28,13,13,0,0,1,88.13,26.5l1-.14a71.72,71.72,0,0,1,44.49,9l.64.36c.56.33,1.12.67,1.67,1s1.14.71,1.71,1.08l.62.42c.86.58,1.71,1.18,2.55,1.79a73.76,73.76,0,0,1,6.9,5.75A13,13,0,0,0,165.6,26.87Z"/><path class="cls-4" d="M72.8,3.31,74,3Z"/><path class="cls-6" d="M85.39,27.13l-.93.17Z"/><path class="cls-6" d="M.42,107.2c0-.51-.09-1-.13-1.54C.33,106.17.38,106.69.42,107.2Z"/><path class="cls-7" d="M68.64,32a13,13,0,0,1-13-22.3l-1,.47A97.62,97.62,0,0,0,0,98.13a13,13,0,0,1,26,0,72.17,72.17,0,0,1,51.09-69,12.22,12.22,0,0,1-2.13.44C72.82,30.27,70.7,31.07,68.64,32Z"/><path class="cls-6" d="M.86,111.17l0-.25Z"/><path class="cls-6" d="M1.24,113.76l0-.11Z"/><path class="cls-6" d="M26,98.13c0,1.16,0,2.32.09,3.47C26,100.44,26,99.29,26,98.13Z"/><path class="cls-6" d="M27.61,113.36c-.26-1.2-.48-2.41-.68-3.62.21,1.27.44,2.54.7,3.79C27.62,113.47,27.62,113.41,27.61,113.36Z"/><path class="cls-6" d="M82.91,27.62l-1,.2Z"/><path class="cls-6" d="M80.35,28.21l-.84.22Z"/><path class="cls-6" d="M26.13,102.35c.14,2.4.39,4.76.76,7.1Q26.34,105.92,26.13,102.35Z"/><path class="cls-6" d="M.2,104.3c0-.65-.08-1.31-.1-2C.13,103,.16,103.64.2,104.3Z"/><path class="cls-6" d="M.05,101.24c0-1,0-2.07,0-3.11C0,99.17,0,100.2.05,101.24Z"/><path class="cls-4" d="M77.49,2.19c.68-.14,1.36-.29,2.05-.42C78.85,1.9,78.17,2.05,77.49,2.19Z"/><path class="cls-6" d="M77.49,2.19c.68-.14,1.36-.29,2.05-.42C78.85,1.9,78.17,2.05,77.49,2.19Z"/><path class="cls-4" d="M80.84,1.53l1.5-.25-.34,0Z"/><path class="cls-6" d="M80.84,1.53l1.5-.25-.34,0Z"/><path class="cls-4" d="M69.77,4.17c1-.31,2-.59,3-.86C71.78,3.58,70.77,3.87,69.77,4.17Z"/><path class="cls-6" d="M69.77,4.17c1-.31,2-.59,3-.86C71.78,3.58,70.77,3.87,69.77,4.17Z"/><path class="cls-4" d="M74,3l2.1-.51Z"/><path class="cls-6" d="M74,3l2.1-.51Z"/><path class="cls-8" d="M26.89,109.45c0,.1,0,.19,0,.29C26.92,109.64,26.9,109.55,26.89,109.45Z"/><path class="cls-9" d="M17.63,128.79a12.95,12.95,0,0,1-15.44-10c-.36-1.67-.68-3.35-.95-5A97.51,97.51,0,0,0,54.6,186.1a13,13,0,0,1,11.54-23.3,71.75,71.75,0,0,1-38.51-49.27A13,13,0,0,1,17.63,128.79Z"/><path class="cls-10" d="M13,85.13a13,13,0,0,0-13,13c0,1,0,2.08.05,3.11,0,.37,0,.73.05,1.1,0,.65.06,1.31.1,2,0,.45,0,.9.09,1.36s.09,1,.13,1.54c.12,1.24.25,2.48.41,3.72l0,.25c.11.83.23,1.66.36,2.48l0,.11c.27,1.7.59,3.38,1,5a13,13,0,0,0,25.44-5.28c-.26-1.25-.49-2.52-.7-3.79,0-.1,0-.19,0-.29-.37-2.34-.62-4.7-.76-7.1,0-.25,0-.5,0-.75C26,100.45,26,99.29,26,98.13A13,13,0,0,0,13,85.13Z"/><path class="cls-8" d="M66.16,162.81q1.61.8,3.24,1.5Q67.77,163.61,66.16,162.81Z"/><path class="cls-8" d="M26.09,101.6c0,.25,0,.5,0,.75C26.12,102.1,26.1,101.85,26.09,101.6Z"/><path class="cls-8" d="M57,187.24q-1.22-.56-2.4-1.14Q55.79,186.69,57,187.24Z"/><path class="cls-8" d="M1.22,113.65c-.13-.82-.25-1.65-.36-2.48C1,112,1.09,112.83,1.22,113.65Z"/><path class="cls-8" d="M.83,110.92c-.16-1.24-.29-2.48-.41-3.72C.54,108.44.67,109.68.83,110.92Z"/><path class="cls-8" d="M.29,105.66c0-.46-.06-.91-.09-1.36Z"/><path class="cls-8" d="M.1,102.34c0-.37,0-.73,0-1.1C.07,101.61.08,102,.1,102.34Z"/><path class="cls-8" d="M64,190.14h0Z"/><path class="cls-11" d="M89.48,183.82a13,13,0,0,1-15.83,9.36h0a99.88,99.88,0,0,0,24.48,3.08A98,98,0,0,0,162.74,172a13.2,13.2,0,0,0,2.08-17.72,13,13,0,0,0-19-2A72.31,72.31,0,0,1,83.9,168.86c-1.22-.24-2.43-.51-3.64-.82h0a12.44,12.44,0,0,1,2,.73A13,13,0,0,1,89.48,183.82Z"/><path class="cls-12" d="M69.4,164.31l.2.09Z"/><path class="cls-12" d="M66.16,162.81h0Z"/><path class="cls-12" d="M58.36,187.86,57,187.24Z"/><path class="cls-13" d="M97,12A13,13,0,0,0,82.34,1.28l-1.5.25-1.3.24c-.69.13-1.37.28-2.05.42-.46.1-.91.19-1.36.3L74,3l-1.23.31c-1,.27-2,.55-3,.86l-.24.07h0a98,98,0,0,0-13.9,5.45,13,13,0,0,0,13,22.3c2.06-.92,4.18-1.72,6.32-2.44A72.59,72.59,0,0,1,88.13,26.5,13,13,0,0,0,97,12Z"/></g></g></g></svg>